<svg width="110" height="18" viewBox="0 0 110 18" fill="none" xmlns="http://www.w3.org/2000/svg">
<path d="M8.72363 3.4079H10.2894V9.00001H8.72363V3.4079Z" fill="#727272"/>
<path d="M8.72363 9.00001V7.43422H14.3157V9.00001H8.72363Z" fill="#727272"/>
<path d="M7.15796 2.0658H5.59217V7.65791H7.15796V2.0658Z" fill="#FEC25D"/>
<path d="M7.15796 7.65791V6.09211H1.56585V7.65791H7.15796Z" fill="#FEC25D"/>
<path d="M8.72363 14.5921H7.15784V8.99999H8.72363V14.5921Z" fill="#727272"/>
<path d="M8.72363 8.99999V10.5658H3.13152V8.99999H8.72363Z" fill="#727272"/>
<path d="M10.2896 15.9342H11.8553V10.3421H10.2896V15.9342Z" fill="#FEC25D"/>
<path d="M10.2896 10.3421V11.9079H15.8817V10.3421H10.2896Z" fill="#FEC25D"/>
<rect x="5.59204" y="0.5" width="4.69737" height="1.56579" fill="#FEC25D"/>
<rect x="15.8816" y="11.9079" width="4.69737" height="1.56579" transform="rotate(-90 15.8816 11.9079)" fill="#FEC25D"/>
<rect y="10.7895" width="4.69737" height="1.56579" transform="rotate(-90 0 10.7895)" fill="#FEC25D"/>
<rect x="7.15796" y="15.9342" width="4.69737" height="1.56579" fill="#FEC25D"/>
<path d="M23.1624 10.8395C23.1624 8.27269 24.8568 6.46085 27.3062 6.46085C29.571 6.46085 31.1144 7.71907 31.3325 9.71546H29.2858C29.0509 8.77598 28.3631 8.28947 27.3901 8.28947C26.0815 8.28947 25.2091 9.27927 25.2091 10.8395C25.2091 12.3997 26.0144 13.3727 27.323 13.3727C28.3463 13.3727 29.0677 12.8694 29.2858 11.9635H31.3493C31.0976 13.8928 29.4871 15.2181 27.323 15.2181C24.8065 15.2181 23.1624 13.4734 23.1624 10.8395ZM37.2345 6.67894V8.57467H36.4796C35.0032 8.57467 34.0805 9.36315 34.0805 10.9737V15H32.0338V6.72927H33.9631L34.0805 7.93717C34.4329 7.11513 35.2213 6.56151 36.3286 6.56151C36.6138 6.56151 36.899 6.59506 37.2345 6.67894ZM37.016 10.8395C37.016 8.25592 38.8782 6.47763 41.445 6.47763C44.0117 6.47763 45.8739 8.25592 45.8739 10.8395C45.8739 13.423 44.0117 15.2013 41.445 15.2013C38.8782 15.2013 37.016 13.423 37.016 10.8395ZM39.0627 10.8395C39.0627 12.3493 40.0358 13.3727 41.445 13.3727C42.8542 13.3727 43.8272 12.3493 43.8272 10.8395C43.8272 9.3296 42.8542 8.30625 41.445 8.30625C40.0358 8.30625 39.0627 9.3296 39.0627 10.8395ZM46.0199 12.4836H47.966C47.9828 13.2049 48.5196 13.6579 49.4591 13.6579C50.4153 13.6579 50.9354 13.272 50.9354 12.6681C50.9354 12.2487 50.7173 11.9467 49.9791 11.7789L48.486 11.4266C46.9929 11.0911 46.2716 10.3865 46.2716 9.06118C46.2716 7.43388 47.6472 6.46085 49.5597 6.46085C51.4219 6.46085 52.6801 7.53453 52.6969 9.14506H50.7508C50.7341 8.44046 50.2643 7.9875 49.4758 7.9875C48.6706 7.9875 48.2008 8.35657 48.2008 8.9773C48.2008 9.44704 48.5699 9.74901 49.2745 9.91677L50.7676 10.2691C52.1601 10.5878 52.8647 11.2253 52.8647 12.5003C52.8647 14.178 51.4387 15.2181 49.392 15.2181C47.3285 15.2181 46.0199 14.1109 46.0199 12.4836ZM52.9467 12.4836H54.8928C54.9095 13.2049 55.4464 13.6579 56.3859 13.6579C57.3421 13.6579 57.8622 13.272 57.8622 12.6681C57.8622 12.2487 57.6441 11.9467 56.9059 11.7789L55.4128 11.4266C53.9197 11.0911 53.1984 10.3865 53.1984 9.06118C53.1984 7.43388 54.574 6.46085 56.4865 6.46085C58.3487 6.46085 59.6069 7.53453 59.6237 9.14506H57.6776C57.6609 8.44046 57.1911 7.9875 56.4026 7.9875C55.5974 7.9875 55.1276 8.35657 55.1276 8.9773C55.1276 9.44704 55.4967 9.74901 56.2013 9.91677L57.6944 10.2691C59.0868 10.5878 59.7915 11.2253 59.7915 12.5003C59.7915 14.178 58.3655 15.2181 56.3187 15.2181C54.2553 15.2181 52.9467 14.1109 52.9467 12.4836ZM62.4067 15H60.511V2.51841H62.5577V7.92039C63.0945 6.99769 64.2018 6.44407 65.46 6.44407C67.8255 6.44407 69.2682 8.28947 69.2682 10.9066C69.2682 13.4566 67.708 15.2181 65.3258 15.2181C64.0844 15.2181 63.0274 14.6645 62.5409 13.7082L62.4067 15ZM62.5745 10.8227C62.5745 12.3158 63.4972 13.3391 64.9064 13.3391C66.3492 13.3391 67.2047 12.299 67.2047 10.8227C67.2047 9.34638 66.3492 8.28947 64.9064 8.28947C63.4972 8.28947 62.5745 9.3296 62.5745 10.8227ZM72.5252 15.2181C70.7637 15.2181 69.69 14.1947 69.69 12.6345C69.69 11.1079 70.7972 10.1516 72.7601 10.0007L75.243 9.81611V9.63157C75.243 8.50756 74.5719 8.0546 73.5318 8.0546C72.3239 8.0546 71.6528 8.55789 71.6528 9.43026H69.9081C69.9081 7.63519 71.3844 6.46085 73.6324 6.46085C75.8637 6.46085 77.2394 7.66874 77.2394 9.9671V15H75.4443L75.2933 13.7753C74.941 14.6309 73.817 15.2181 72.5252 15.2181ZM73.1963 13.6747C74.4545 13.6747 75.2597 12.9197 75.2597 11.6447V11.2085L73.5318 11.3428C72.2568 11.4602 71.7703 11.8796 71.7703 12.5507C71.7703 13.3056 72.2736 13.6747 73.1963 13.6747ZM77.7737 12.4836H79.7198C79.7365 13.2049 80.2734 13.6579 81.2129 13.6579C82.1691 13.6579 82.6892 13.272 82.6892 12.6681C82.6892 12.2487 82.4711 11.9467 81.7329 11.7789L80.2398 11.4266C78.7467 11.0911 78.0254 10.3865 78.0254 9.06118C78.0254 7.43388 79.401 6.46085 81.3135 6.46085C83.1757 6.46085 84.4339 7.53453 84.4507 9.14506H82.5046C82.4879 8.44046 82.0181 7.9875 81.2296 7.9875C80.4244 7.9875 79.9546 8.35657 79.9546 8.9773C79.9546 9.44704 80.3237 9.74901 81.0283 9.91677L82.5214 10.2691C83.9138 10.5878 84.6184 11.2253 84.6184 12.5003C84.6184 14.178 83.1925 15.2181 81.1457 15.2181C79.0823 15.2181 77.7737 14.1109 77.7737 12.4836ZM89.0456 15.2181C86.5794 15.2181 84.8515 13.423 84.8515 10.8562C84.8515 8.25592 86.5459 6.46085 88.9785 6.46085C91.4614 6.46085 93.0383 8.12171 93.0383 10.7053V11.326L86.7975 11.3428C86.9485 12.8023 87.7202 13.5405 89.0791 13.5405C90.2031 13.5405 90.9413 13.1043 91.1762 12.3158H93.0719C92.7196 14.1276 91.2097 15.2181 89.0456 15.2181ZM88.9952 8.13848C87.7873 8.13848 87.0492 8.79276 86.8479 10.0342H91.0084C91.0084 8.89342 90.2199 8.13848 88.9952 8.13848ZM94.7053 15.2013C93.9672 15.2013 93.3465 14.5974 93.3465 13.876C93.3465 13.1378 93.9672 12.5339 94.7053 12.5339C95.4435 12.5339 96.0642 13.1378 96.0642 13.876C96.0642 14.5974 95.4435 15.2013 94.7053 15.2013ZM99.6753 15.2181C97.9138 15.2181 96.8401 14.1947 96.8401 12.6345C96.8401 11.1079 97.9474 10.1516 99.9102 10.0007L102.393 9.81611V9.63157C102.393 8.50756 101.722 8.0546 100.682 8.0546C99.474 8.0546 98.803 8.55789 98.803 9.43026H97.0582C97.0582 7.63519 98.5345 6.46085 100.783 6.46085C103.014 6.46085 104.389 7.66874 104.389 9.9671V15H102.594L102.443 13.7753C102.091 14.6309 100.967 15.2181 99.6753 15.2181ZM100.346 13.6747C101.605 13.6747 102.41 12.9197 102.41 11.6447V11.2085L100.682 11.3428C99.4069 11.4602 98.9204 11.8796 98.9204 12.5507C98.9204 13.3056 99.4237 13.6747 100.346 13.6747ZM106.585 5.05164C105.88 5.05164 105.326 4.49802 105.326 3.81019C105.326 3.12236 105.88 2.58552 106.585 2.58552C107.256 2.58552 107.809 3.12236 107.809 3.81019C107.809 4.49802 107.256 5.05164 106.585 5.05164ZM105.561 15V6.71249H107.608V15H105.561Z" fill="black"/>
</svg>
