<svg width="42" height="41" viewBox="0 0 42 41" fill="none" xmlns="http://www.w3.org/2000/svg">
<path d="M21 7.34204H24.6842V20.4999H21V7.34204Z" fill="white"/>
<path d="M21 20.4999V16.8157H34.1579V20.4999H21Z" fill="white"/>
<path d="M17.3157 4.1842H13.6315V17.3421H17.3157V4.1842Z" fill="#FEC25D"/>
<path d="M17.3157 17.3421V13.6579H4.15778V17.3421H17.3157Z" fill="#FEC25D"/>
<path d="M21 33.658H17.3158V20.5001H21V33.658Z" fill="white"/>
<path d="M21 20.5001V24.1843H7.84211V20.5001H21Z" fill="white"/>
<path d="M24.6841 36.8158H28.3683V23.6579H24.6841V36.8158Z" fill="#FEC25D"/>
<path d="M24.6841 23.6579V27.3421H37.842V23.6579H24.6841Z" fill="#FEC25D"/>
<rect x="13.6316" y="0.5" width="11.0526" height="3.68421" fill="#FEC25D"/>
<rect x="37.842" y="27.342" width="11.0526" height="3.68421" transform="rotate(-90 37.842 27.342)" fill="#FEC25D"/>
<rect x="0.473633" y="24.7105" width="11.0526" height="3.68421" transform="rotate(-90 0.473633 24.7105)" fill="#FEC25D"/>
<rect x="17.3157" y="36.8158" width="11.0526" height="3.68421" fill="#FEC25D"/>
</svg>
