<svg width="111" height="17" viewBox="0 0 111 17" fill="none" xmlns="http://www.w3.org/2000/svg">
<path d="M9.22363 2.9079H10.7894V8.50001H9.22363V2.9079Z" fill="white"/>
<path d="M9.22363 8.50001V6.93422H14.8157V8.50001H9.22363Z" fill="white"/>
<path d="M7.65796 1.5658H6.09217V7.15791H7.65796V1.5658Z" fill="#FEC25D"/>
<path d="M7.65796 7.15791V5.59211H2.06585V7.15791H7.65796Z" fill="#FEC25D"/>
<path d="M9.22363 14.0921H7.65784V8.49999H9.22363V14.0921Z" fill="white"/>
<path d="M9.22363 8.49999V10.0658H3.63152V8.49999H9.22363Z" fill="white"/>
<path d="M10.7894 15.4342H12.3552V9.84209H10.7894V15.4342Z" fill="#FEC25D"/>
<path d="M10.7894 9.84209V11.4079H16.3815V9.84209H10.7894Z" fill="#FEC25D"/>
<rect x="6.09216" width="4.69737" height="1.56579" fill="#FEC25D"/>
<rect x="16.3816" y="11.4079" width="4.69737" height="1.56579" transform="rotate(-90 16.3816 11.4079)" fill="#FEC25D"/>
<rect x="0.5" y="10.2895" width="4.69737" height="1.56579" transform="rotate(-90 0.5 10.2895)" fill="#FEC25D"/>
<rect x="7.65796" y="15.4342" width="4.69737" height="1.56579" fill="#FEC25D"/>
<path d="M23.6626 10.3395C23.6626 7.77269 25.357 5.96085 27.8063 5.96085C30.0711 5.96085 31.6145 7.21907 31.8326 9.21546H29.7859C29.551 8.27598 28.8632 7.78947 27.8902 7.78947C26.5816 7.78947 25.7093 8.77927 25.7093 10.3395C25.7093 11.8997 26.5145 12.8727 27.8231 12.8727C28.8464 12.8727 29.5678 12.3694 29.7859 11.4635H31.8494C31.5978 13.3928 29.9872 14.7181 27.8231 14.7181C25.3066 14.7181 23.6626 12.9734 23.6626 10.3395ZM37.7346 6.17894V8.07467H36.9797C35.5034 8.07467 34.5807 8.86315 34.5807 10.4737V14.5H32.534V6.22927H34.4632L34.5807 7.43717C34.933 6.61513 35.7215 6.06151 36.8287 6.06151C37.1139 6.06151 37.3991 6.09506 37.7346 6.17894ZM37.5161 10.3395C37.5161 7.75592 39.3783 5.97763 41.9451 5.97763C44.5119 5.97763 46.374 7.75592 46.374 10.3395C46.374 12.923 44.5119 14.7013 41.9451 14.7013C39.3783 14.7013 37.5161 12.923 37.5161 10.3395ZM39.5628 10.3395C39.5628 11.8493 40.5359 12.8727 41.9451 12.8727C43.3543 12.8727 44.3273 11.8493 44.3273 10.3395C44.3273 8.8296 43.3543 7.80625 41.9451 7.80625C40.5359 7.80625 39.5628 8.8296 39.5628 10.3395ZM46.52 11.9836H48.4661C48.4829 12.7049 49.0197 13.1579 49.9592 13.1579C50.9154 13.1579 51.4355 12.772 51.4355 12.1681C51.4355 11.7487 51.2174 11.4467 50.4793 11.2789L48.9862 10.9266C47.4931 10.5911 46.7717 9.88651 46.7717 8.56118C46.7717 6.93388 48.1473 5.96085 50.0598 5.96085C51.922 5.96085 53.1802 7.03453 53.197 8.64506H51.251C51.2342 7.94046 50.7645 7.4875 49.976 7.4875C49.1707 7.4875 48.701 7.85657 48.701 8.4773C48.701 8.94704 49.07 9.24901 49.7746 9.41677L51.2677 9.76908C52.6602 10.0878 53.3648 10.7253 53.3648 12.0003C53.3648 13.678 51.9388 14.7181 49.8921 14.7181C47.8286 14.7181 46.52 13.6109 46.52 11.9836ZM53.4468 11.9836H55.3929C55.4097 12.7049 55.9465 13.1579 56.886 13.1579C57.8422 13.1579 58.3623 12.772 58.3623 12.1681C58.3623 11.7487 58.1442 11.4467 57.406 11.2789L55.913 10.9266C54.4199 10.5911 53.6985 9.88651 53.6985 8.56118C53.6985 6.93388 55.0741 5.96085 56.9866 5.96085C58.8488 5.96085 60.107 7.03453 60.1238 8.64506H58.1778C58.161 7.94046 57.6912 7.4875 56.9028 7.4875C56.0975 7.4875 55.6278 7.85657 55.6278 8.4773C55.6278 8.94704 55.9968 9.24901 56.7014 9.41677L58.1945 9.76908C59.587 10.0878 60.2916 10.7253 60.2916 12.0003C60.2916 13.678 58.8656 14.7181 56.8189 14.7181C54.7554 14.7181 53.4468 13.6109 53.4468 11.9836ZM62.9068 14.5H61.0111V2.01841H63.0578V7.42039C63.5947 6.49769 64.7019 5.94407 65.9601 5.94407C68.3256 5.94407 69.7684 7.78947 69.7684 10.4066C69.7684 12.9566 68.2082 14.7181 65.8259 14.7181C64.5845 14.7181 63.5276 14.1645 63.0411 13.2082L62.9068 14.5ZM63.0746 10.3227C63.0746 11.8158 63.9973 12.8391 65.4065 12.8391C66.8493 12.8391 67.7049 11.799 67.7049 10.3227C67.7049 8.84638 66.8493 7.78947 65.4065 7.78947C63.9973 7.78947 63.0746 8.8296 63.0746 10.3227ZM73.0253 14.7181C71.2638 14.7181 70.1901 13.6947 70.1901 12.1345C70.1901 10.6079 71.2974 9.65164 73.2602 9.50065L75.7431 9.31611V9.13157C75.7431 8.00756 75.072 7.5546 74.0319 7.5546C72.824 7.5546 72.153 8.05789 72.153 8.93026H70.4082C70.4082 7.13519 71.8845 5.96085 74.1326 5.96085C76.3638 5.96085 77.7395 7.16874 77.7395 9.4671V14.5H75.9444L75.7934 13.2753C75.4411 14.1309 74.3171 14.7181 73.0253 14.7181ZM73.6964 13.1747C74.9546 13.1747 75.7599 12.4197 75.7599 11.1447V10.7085L74.0319 10.8428C72.7569 10.9602 72.2704 11.3796 72.2704 12.0507C72.2704 12.8056 72.7737 13.1747 73.6964 13.1747ZM78.2738 11.9836H80.2199C80.2367 12.7049 80.7735 13.1579 81.713 13.1579C82.6692 13.1579 83.1893 12.772 83.1893 12.1681C83.1893 11.7487 82.9712 11.4467 82.233 11.2789L80.7399 10.9266C79.2469 10.5911 78.5255 9.88651 78.5255 8.56118C78.5255 6.93388 79.9011 5.96085 81.8136 5.96085C83.6758 5.96085 84.934 7.03453 84.9508 8.64506H83.0048C82.988 7.94046 82.5182 7.4875 81.7298 7.4875C80.9245 7.4875 80.4548 7.85657 80.4548 8.4773C80.4548 8.94704 80.8238 9.24901 81.5284 9.41677L83.0215 9.76908C84.414 10.0878 85.1186 10.7253 85.1186 12.0003C85.1186 13.678 83.6926 14.7181 81.6459 14.7181C79.5824 14.7181 78.2738 13.6109 78.2738 11.9836ZM89.5457 14.7181C87.0796 14.7181 85.3516 12.923 85.3516 10.3562C85.3516 7.75592 87.046 5.96085 89.4786 5.96085C91.9615 5.96085 93.5385 7.62171 93.5385 10.2053V10.826L87.2977 10.8428C87.4486 12.3023 88.2204 13.0405 89.5792 13.0405C90.7033 13.0405 91.4414 12.6043 91.6763 11.8158H93.572C93.2197 13.6276 91.7098 14.7181 89.5457 14.7181ZM89.4954 7.63848C88.2875 7.63848 87.5493 8.29276 87.348 9.53421H91.5085C91.5085 8.39342 90.72 7.63848 89.4954 7.63848ZM95.2055 14.7013C94.4673 14.7013 93.8466 14.0974 93.8466 13.376C93.8466 12.6378 94.4673 12.0339 95.2055 12.0339C95.9436 12.0339 96.5644 12.6378 96.5644 13.376C96.5644 14.0974 95.9436 14.7013 95.2055 14.7013ZM100.175 14.7181C98.4139 14.7181 97.3403 13.6947 97.3403 12.1345C97.3403 10.6079 98.4475 9.65164 100.41 9.50065L102.893 9.31611V9.13157C102.893 8.00756 102.222 7.5546 101.182 7.5546C99.9741 7.5546 99.3031 8.05789 99.3031 8.93026H97.5583C97.5583 7.13519 99.0347 5.96085 101.283 5.96085C103.514 5.96085 104.89 7.16874 104.89 9.4671V14.5H103.095L102.944 13.2753C102.591 14.1309 101.467 14.7181 100.175 14.7181ZM100.847 13.1747C102.105 13.1747 102.91 12.4197 102.91 11.1447V10.7085L101.182 10.8428C99.907 10.9602 99.4205 11.3796 99.4205 12.0507C99.4205 12.8056 99.9238 13.1747 100.847 13.1747ZM107.085 4.55164C106.38 4.55164 105.827 3.99802 105.827 3.31019C105.827 2.62236 106.38 2.08552 107.085 2.08552C107.756 2.08552 108.309 2.62236 108.309 3.31019C108.309 3.99802 107.756 4.55164 107.085 4.55164ZM106.061 14.5V6.21249H108.108V14.5H106.061Z" fill="#F4F4F4"/>
</svg>
