<svg width="20" height="21" viewBox="0 0 20 21" fill="none" xmlns="http://www.w3.org/2000/svg">
<g id="bar-line-chart">
<path id="Icon" d="M16.6666 17.1667V11.3333M9.99992 17.1667V8.83333M3.33325 17.1667L3.33325 13.8333M11.1721 4.68959L15.4792 6.30472M8.99889 5.00077L4.33344 8.49986M17.5505 5.86612C18.0386 6.35427 18.0386 7.14573 17.5505 7.63388C17.0623 8.12204 16.2709 8.12204 15.7827 7.63388C15.2945 7.14573 15.2945 6.35427 15.7827 5.86612C16.2709 5.37796 17.0623 5.37796 17.5505 5.86612ZM4.21714 8.36612C4.70529 8.85427 4.70529 9.64573 4.21714 10.1339C3.72898 10.622 2.93752 10.622 2.44937 10.1339C1.96121 9.64573 1.96121 8.85427 2.44937 8.36612C2.93752 7.87796 3.72898 7.87796 4.21714 8.36612ZM10.8838 3.36612C11.372 3.85427 11.372 4.64573 10.8838 5.13388C10.3956 5.62204 9.60419 5.62204 9.11603 5.13388C8.62788 4.64573 8.62788 3.85427 9.11603 3.36612C9.60419 2.87796 10.3956 2.87796 10.8838 3.36612Z" stroke="#5DFE80" stroke-width="1.5" stroke-linecap="round" stroke-linejoin="round"/>
</g>
</svg>
