<svg width="20" height="21" viewBox="0 0 20 21" fill="none" xmlns="http://www.w3.org/2000/svg">
<g id="file-05">
<path id="Icon" d="M11.6666 2.39124V5.83335C11.6666 6.30006 11.6666 6.53342 11.7574 6.71168C11.8373 6.86848 11.9648 6.99596 12.1216 7.07586C12.2999 7.16669 12.5332 7.16669 12.9999 7.16669H16.442M11.6666 14.6666H6.66659M13.3333 11.3333H6.66659M16.6666 8.82348V14.8333C16.6666 16.2334 16.6666 16.9335 16.3941 17.4683C16.1544 17.9387 15.772 18.3211 15.3016 18.5608C14.7668 18.8333 14.0667 18.8333 12.6666 18.8333H7.33325C5.93312 18.8333 5.23306 18.8333 4.69828 18.5608C4.22787 18.3211 3.84542 17.9387 3.60574 17.4683C3.33325 16.9335 3.33325 16.2334 3.33325 14.8333V6.16663C3.33325 4.76649 3.33325 4.06643 3.60574 3.53165C3.84542 3.06124 4.22787 2.67879 4.69828 2.43911C5.23306 2.16663 5.93312 2.16663 7.33325 2.16663H10.0097C10.6212 2.16663 10.9269 2.16663 11.2147 2.2357C11.4698 2.29694 11.7136 2.39795 11.9373 2.53503C12.1896 2.68963 12.4058 2.90582 12.8382 3.3382L15.495 5.99505C15.9274 6.42743 16.1436 6.64362 16.2982 6.89591C16.4353 7.11959 16.5363 7.36346 16.5975 7.61855C16.6666 7.90627 16.6666 8.212 16.6666 8.82348Z" stroke="#FEC25D" stroke-width="1.5" stroke-linecap="round" stroke-linejoin="round"/>
</g>
</svg>
