<svg width="32" height="33" viewBox="0 0 32 33" fill="none" xmlns="http://www.w3.org/2000/svg">
<g id="alert-octagon">
<path id="Icon" d="M15.9998 11.1667V16.5001M15.9998 21.8334H16.0132M2.6665 11.8637V21.1364C2.6665 21.4625 2.6665 21.6256 2.70334 21.7791C2.73601 21.9151 2.78988 22.0452 2.86298 22.1645C2.94544 22.299 3.06074 22.4143 3.29134 22.6449L9.855 29.2086C10.0856 29.4392 10.2009 29.5545 10.3355 29.6369C10.4548 29.71 10.5848 29.7639 10.7209 29.7966C10.8743 29.8334 11.0374 29.8334 11.3635 29.8334H20.6362C20.9623 29.8334 21.1254 29.8334 21.2788 29.7966C21.4149 29.7639 21.5449 29.71 21.6642 29.6369C21.7988 29.5545 21.9141 29.4392 22.1447 29.2086L28.7083 22.6449C28.9389 22.4143 29.0542 22.299 29.1367 22.1645C29.2098 22.0452 29.2637 21.9151 29.2963 21.7791C29.3332 21.6256 29.3332 21.4625 29.3332 21.1364V11.8637C29.3332 11.5376 29.3332 11.3746 29.2963 11.2211C29.2637 11.0851 29.2098 10.955 29.1367 10.8357C29.0542 10.7011 28.9389 10.5858 28.7083 10.3552L22.1447 3.79159C21.9141 3.56098 21.7988 3.44568 21.6642 3.36323C21.5449 3.29012 21.4149 3.23625 21.2788 3.20359C21.1254 3.16675 20.9623 3.16675 20.6362 3.16675H11.3635C11.0374 3.16675 10.8743 3.16675 10.7209 3.20359C10.5848 3.23625 10.4548 3.29012 10.3355 3.36323C10.2009 3.44568 10.0856 3.56098 9.855 3.79159L3.29134 10.3552C3.06074 10.5858 2.94544 10.7011 2.86298 10.8357C2.78988 10.955 2.73601 11.0851 2.70334 11.2211C2.6665 11.3746 2.6665 11.5376 2.6665 11.8637Z" stroke="#FF4343" stroke-width="3" stroke-linecap="round" stroke-linejoin="round"/>
</g>
</svg>
