<svg width="67" height="9" viewBox="0 0 67 9" fill="none" xmlns="http://www.w3.org/2000/svg">
<g clip-path="url(#clip0_1928_5411)">
<path d="M39.5619 0.000244141C38.1984 0.000244141 36.8655 1.23498 36.7122 3.01906V0.147322H34.7542V8.80636H36.7362V4.61503C36.7362 3.44095 37.5684 1.78476 39.5619 1.78476V0.000244141Z" fill="black"/>
<path d="M60.3532 7.42002V1.48754H61.5013C63.0322 1.48754 64.2763 2.44439 64.2763 4.40595C64.2763 6.36747 63.0322 7.42002 61.5013 7.42002H60.3532ZM58.3915 8.80746H61.7407C63.7978 8.80746 66.3334 7.46787 66.3334 4.40595C66.3334 1.39186 63.7978 0.147949 61.7407 0.147949H58.3915V8.80746Z" fill="black"/>
<path d="M50.8861 4.50184C50.8861 2.92303 51.6994 1.63128 53.0389 1.63128C54.3307 1.63128 55.0483 2.92303 55.0483 4.50184C55.0483 6.08065 54.3307 7.37239 53.0389 7.37239C51.6994 7.37239 50.8861 6.08065 50.8861 4.50184ZM48.8767 4.59751C48.8767 7.18102 50.2162 8.99905 52.3213 8.99905C53.8522 8.99905 54.7612 7.99435 55.2397 6.36769V8.80768H57.2008V0.148166H55.2397V2.44461C54.8092 0.913645 53.9002 0.00463867 52.465 0.00463867C50.3119 0.00463867 48.8767 1.96618 48.8767 4.59751Z" fill="black"/>
<path d="M4.20874 8.99905C1.76877 8.99905 0.333496 7.0375 0.333496 4.59751C0.333496 2.06187 1.9123 0.00463867 4.92637 0.00463867C8.03613 0.00463867 9.08868 2.10971 9.1365 3.30577H6.88792C6.84007 2.63598 6.26596 1.63128 4.87852 1.63128C3.39541 1.63128 2.43857 2.92303 2.43857 4.50184C2.43857 6.08065 3.39541 7.37239 4.87852 7.37239C6.21811 7.37239 6.79222 6.31987 7.03144 5.26732H4.87852V4.40614H9.39606V8.80768H7.41418V6.0328C7.27066 7.0375 6.6487 8.99905 4.20874 8.99905Z" fill="black"/>
<path d="M13.4143 8.99883C11.5485 8.99883 10.4003 7.75491 10.4003 5.2671V0.147949H12.4096V5.2671C12.4096 6.55884 13.0316 7.1808 14.0841 7.1808C16.1414 7.1808 16.9068 4.64514 16.9068 2.87498V0.147949H18.9162V8.80746H16.9547V5.60199C16.5719 7.37217 15.5194 8.99883 13.4143 8.99883Z" fill="black"/>
<path d="M30.9237 0C29.2094 0 28.1279 1.65606 27.7749 3.18729C27.7145 1.13526 26.7054 0 25.0908 0C23.6958 0 22.4016 1.24402 22.0655 3.21207V0.147307H20.1067V8.80701H22.0906V5.70255C22.0906 4.9329 22.4115 1.77448 24.4086 1.77448C25.7024 1.77448 25.8373 2.94148 25.8373 4.53669V8.80701H27.8202V5.70255C27.8202 4.9329 28.1544 1.77448 30.1515 1.77448C31.4442 1.77448 31.5777 2.94148 31.5777 4.53669V8.80701H33.5634V3.68484C33.5724 1.22753 32.7048 0 30.9237 0Z" fill="black"/>
<path d="M43.8184 0C41.2501 0 39.5098 2.01383 39.5098 4.49946C39.5098 7.23828 41.1649 8.99889 43.8184 8.99889C46.3867 8.99889 48.1579 6.98511 48.1579 4.49946C48.1579 1.76067 46.4707 0 43.8184 0ZM43.8184 7.4661C42.3232 7.4661 41.3548 6.20028 41.3548 4.49946C41.3548 2.79865 42.3265 1.53279 43.8184 1.53279C45.31 1.53279 46.243 2.79865 46.243 4.49946C46.243 6.20028 45.3091 7.4661 43.8184 7.4661Z" fill="black"/>
</g>
<defs>
<clipPath id="clip0_1928_5411">
<rect width="65.9999" height="9" fill="white" transform="translate(0.333374)"/>
</clipPath>
</defs>
</svg>
