<svg width="74" height="11" viewBox="0 0 74 11" fill="none" xmlns="http://www.w3.org/2000/svg">
<g id="logo" clip-path="url(#clip0_1032_960)">
<path id="Vector" d="M44.2539 0.500183C42.7389 0.500183 41.2579 1.87212 41.0875 3.85442V0.663603H38.9119V10.2848H41.1142V5.62772C41.1142 4.32319 42.0389 2.48298 44.2539 2.48298V0.500183Z" fill="white"/>
<path id="Vector_2" d="M67.3552 8.74445V2.1528H68.6309C70.3319 2.1528 71.7142 3.21597 71.7142 5.39548C71.7142 7.57495 70.3319 8.74445 68.6309 8.74445H67.3552ZM65.1755 10.286H68.8969C71.1825 10.286 73.9999 8.79761 73.9999 5.39548C73.9999 2.04649 71.1825 0.664368 68.8969 0.664368H65.1755V10.286Z" fill="white"/>
<path id="Vector_3" d="M56.8363 5.50195C56.8363 3.74773 57.74 2.31245 59.2283 2.31245C60.6636 2.31245 61.461 3.74773 61.461 5.50195C61.461 7.25619 60.6636 8.69145 59.2283 8.69145C57.74 8.69145 56.8363 7.25619 56.8363 5.50195ZM54.6036 5.60825C54.6036 8.47882 56.092 10.4989 58.431 10.4989C60.132 10.4989 61.142 9.38252 61.6736 7.57512V10.2862H63.8526V0.664541H61.6736V3.21614C61.1953 1.51507 60.1853 0.505066 58.5906 0.505066C56.1983 0.505066 54.6036 2.68456 54.6036 5.60825Z" fill="white"/>
<path id="Vector_4" d="M4.97245 10.4989C2.26137 10.4989 0.666626 8.31935 0.666626 5.60825C0.666626 2.79088 2.42085 0.505066 5.76982 0.505066C9.22511 0.505066 10.3946 2.84403 10.4477 4.17299H7.94932C7.89615 3.42878 7.25825 2.31245 5.71665 2.31245C4.06875 2.31245 3.00559 3.74773 3.00559 5.50195C3.00559 7.25619 4.06875 8.69145 5.71665 8.69145C7.20508 8.69145 7.84298 7.52199 8.10878 6.35249H5.71665V5.39562H10.7361V10.2862H8.53405V7.20302C8.37458 8.31935 7.68352 10.4989 4.97245 10.4989Z" fill="white"/>
<path id="Vector_5" d="M15.201 10.4987C13.1278 10.4987 11.8521 9.11655 11.8521 6.35231V0.664368H14.0847V6.35231C14.0847 7.78758 14.7757 8.47865 15.9452 8.47865C18.231 8.47865 19.0816 5.66125 19.0816 3.6944V0.664368H21.3142V10.286H19.1347V6.72441C18.7094 8.69128 17.54 10.4987 15.201 10.4987Z" fill="white"/>
<path id="Vector_6" d="M34.6559 0.5C32.751 0.5 31.5494 2.34007 31.1572 4.04143C31.0901 1.7614 29.9689 0.5 28.1749 0.5C26.6249 0.5 25.1869 1.88225 24.8134 4.06897V0.663674H22.637V10.2856H24.8413V6.83617C24.8413 5.981 25.1978 2.47165 27.4169 2.47165C28.8544 2.47165 29.0043 3.76831 29.0043 5.54077V10.2856H31.2076V6.83617C31.2076 5.981 31.5788 2.47165 33.7979 2.47165C35.2342 2.47165 35.3826 3.76831 35.3826 5.54077V10.2856H37.5889V4.59427C37.5989 1.86392 36.6349 0.5 34.6559 0.5Z" fill="white"/>
<path id="Vector_7" d="M48.9832 0.5C46.1296 0.5 44.1959 2.73759 44.1959 5.4994C44.1959 8.54253 46.0349 10.4988 48.9832 10.4988C51.8369 10.4988 53.8049 8.26123 53.8049 5.4994C53.8049 2.4563 51.9302 0.5 48.9832 0.5ZM48.9832 8.79566C47.3219 8.79566 46.2459 7.3892 46.2459 5.4994C46.2459 3.60961 47.3256 2.2031 48.9832 2.2031C50.6406 2.2031 51.6772 3.60961 51.6772 5.4994C51.6772 7.3892 50.6396 8.79566 48.9832 8.79566Z" fill="white"/>
</g>
<defs>
<clipPath id="clip0_1032_960">
<rect width="73.3332" height="10" fill="white" transform="translate(0.666626 0.5)"/>
</clipPath>
</defs>
</svg>
