<svg width="60" height="17" viewBox="0 0 60 17" fill="none" xmlns="http://www.w3.org/2000/svg">
<g clip-path="url(#clip0_1928_5396)">
<path d="M12.7916 3.21986C12.7818 3.13177 12.7035 3.09263 12.6448 3.08284C12.5861 3.07305 11.4116 3.06326 11.4116 3.06326C11.4116 3.06326 10.4231 2.10414 10.3253 2.00627C10.2274 1.9084 10.0414 1.93776 9.96314 1.95733C9.96314 1.95733 9.77719 2.01606 9.46401 2.11393C9.41507 1.94755 9.33678 1.74202 9.22912 1.53649C8.87679 0.861192 8.36787 0.50886 7.7415 0.50886C7.70235 0.50886 7.65342 0.50886 7.61427 0.518647C7.5947 0.499073 7.57512 0.479499 7.55555 0.450138C7.28151 0.156528 6.93897 0.0195106 6.52791 0.0292976C5.72538 0.0488716 4.93264 0.626304 4.27691 1.66372C3.81692 2.38796 3.47438 3.29815 3.37651 4.00282C2.45653 4.28664 1.81059 4.48238 1.8008 4.49217C1.34082 4.63897 1.32124 4.64876 1.26252 5.08917C1.21359 5.41214 0 14.8174 0 14.8174L10.1882 16.5791L14.6022 15.483C14.6022 15.483 12.8014 3.29815 12.7916 3.21986ZM8.95508 2.27052C8.7202 2.33903 8.45595 2.42711 8.16234 2.51519C8.15255 2.11393 8.10362 1.54628 7.91767 1.05693C8.53424 1.17438 8.82785 1.85946 8.95508 2.27052ZM7.63384 2.68157C7.09556 2.84795 6.51813 3.02412 5.93091 3.21007C6.09729 2.5837 6.41047 1.95733 6.79216 1.54628C6.93897 1.38969 7.13471 1.22331 7.36959 1.12544C7.5947 1.58543 7.63384 2.24116 7.63384 2.68157ZM6.5377 0.567582C6.72365 0.567582 6.88024 0.60673 7.01726 0.694813C6.80195 0.80247 6.58664 0.968849 6.3909 1.18416C5.88197 1.73223 5.49049 2.57392 5.3339 3.39602C4.84455 3.54283 4.37478 3.68963 3.93437 3.82665C4.22797 2.53477 5.30454 0.60673 6.5377 0.567582Z" fill="#95BF47"/>
<path d="M12.6448 3.0828C12.586 3.07301 11.4116 3.06323 11.4116 3.06323C11.4116 3.06323 10.4231 2.1041 10.3253 2.00623C10.2861 1.96708 10.2372 1.94751 10.1882 1.94751V16.5791L14.6022 15.4829C14.6022 15.4829 12.8014 3.3079 12.7916 3.21982C12.772 3.13174 12.7035 3.09259 12.6448 3.0828Z" fill="#5E8E3E"/>
<path d="M7.74151 5.35353L7.23258 7.27178C7.23258 7.27178 6.66494 7.00753 5.97985 7.05647C4.98158 7.11519 4.97179 7.74156 4.98158 7.90793C5.0403 8.76919 7.2913 8.95514 7.41854 10.9615C7.51641 12.547 6.57686 13.6235 5.22625 13.7116C3.60161 13.8095 2.711 12.8602 2.711 12.8602L3.05354 11.4019C3.05354 11.4019 3.95394 12.0772 4.66839 12.038C5.13817 12.0087 5.30455 11.627 5.28497 11.353C5.21646 10.2372 3.37651 10.296 3.25907 8.46579C3.1612 6.91945 4.17905 5.35353 6.42026 5.20673C7.30109 5.12843 7.74151 5.35353 7.74151 5.35353Z" fill="white"/>
<path d="M20.582 9.44435C20.0731 9.17031 19.8089 8.93542 19.8089 8.61245C19.8089 8.2014 20.171 7.93715 20.7484 7.93715C21.4139 7.93715 22.0011 8.21119 22.0011 8.21119L22.4709 6.78229C22.4709 6.78229 22.0403 6.44953 20.7778 6.44953C19.0161 6.44953 17.7927 7.45759 17.7927 8.8767C17.7927 9.67923 18.3604 10.2958 19.1238 10.7362C19.7403 11.0886 19.9557 11.3332 19.9557 11.7051C19.9557 12.0868 19.6523 12.3902 19.0748 12.3902C18.2234 12.3902 17.4208 11.9498 17.4208 11.9498L16.9217 13.3787C16.9217 13.3787 17.6655 13.8779 18.9084 13.8779C20.719 13.8779 22.0207 12.9872 22.0207 11.3822C22.0305 10.5111 21.3748 9.89455 20.582 9.44435ZM27.8048 6.42995C26.9142 6.42995 26.2095 6.85079 25.6712 7.49674L25.6419 7.48695L26.4151 3.43513H24.3989L22.4415 13.7408H24.4577L25.133 10.2175C25.3972 8.88649 26.0823 8.06438 26.7282 8.06438C27.1784 8.06438 27.3546 8.36778 27.3546 8.80819C27.3546 9.08223 27.3253 9.42477 27.2665 9.69881L26.5031 13.731H28.5193L29.312 9.56179C29.4001 9.12138 29.4588 8.59288 29.4588 8.25033C29.4588 7.12483 28.852 6.42995 27.8048 6.42995ZM34.0195 6.42995C31.5924 6.42995 29.9873 8.62224 29.9873 11.069C29.9873 12.6349 30.9562 13.8876 32.7668 13.8876C35.145 13.8876 36.7599 11.7541 36.7599 9.24861C36.7501 7.80992 35.8986 6.42995 34.0195 6.42995ZM33.0213 12.3413C32.3362 12.3413 32.0426 11.7541 32.0426 11.0298C32.0426 9.87497 32.6396 7.98608 33.7357 7.98608C34.4502 7.98608 34.6851 8.60267 34.6851 9.19967C34.6851 10.4426 34.0881 12.3413 33.0213 12.3413ZM41.9078 6.42995C40.5475 6.42995 39.7743 7.62397 39.7743 7.62397H39.7449L39.8624 6.53761H38.0811C37.9931 7.27164 37.8365 8.37756 37.6701 9.20946L36.2705 16.5888H38.2867L38.8445 13.6038H38.8837C38.8837 13.6038 39.2947 13.8681 40.0679 13.8681C42.4363 13.8681 43.9827 11.4409 43.9827 8.98436C43.9925 7.64354 43.3857 6.42995 41.9078 6.42995ZM39.9798 12.3707C39.4513 12.3707 39.1479 12.077 39.1479 12.077L39.4807 10.1882C39.7156 8.93542 40.3713 8.09374 41.076 8.09374C41.6925 8.09374 41.8785 8.66139 41.8785 9.20946C41.8785 10.5111 41.1053 12.3707 39.9798 12.3707ZM46.8698 3.54279C46.2239 3.54279 45.715 4.05172 45.715 4.71723C45.715 5.31424 46.0967 5.72529 46.6643 5.72529H46.6937C47.32 5.72529 47.8681 5.30445 47.8779 4.55085C47.8779 3.96363 47.4864 3.54279 46.8698 3.54279ZM44.0512 13.7408H46.0673L47.4375 6.59633H45.4018L44.0512 13.7408ZM52.5659 6.57676H51.1663L51.2348 6.244C51.3523 5.55891 51.7633 4.94233 52.4288 4.94233C52.791 4.94233 53.0748 5.0402 53.0748 5.0402L53.4663 3.4645C53.4663 3.4645 53.1139 3.28833 52.3701 3.28833C51.6557 3.28833 50.9412 3.49386 50.3932 3.96363C49.7081 4.55085 49.3851 5.39253 49.2187 6.244L49.16 6.57676H48.2204L47.9268 8.09374H48.8664L47.7996 13.7408H49.8157L50.8825 8.09374H52.2723L52.5659 6.57676ZM57.4202 6.59633C57.4202 6.59633 56.1577 9.7771 55.59 11.5094H55.5607C55.5215 10.9515 55.0615 6.59633 55.0615 6.59633H52.9476L54.1611 13.1634C54.1905 13.3102 54.1709 13.3983 54.122 13.4962C53.8871 13.9464 53.4956 14.3868 53.0259 14.7097C52.6442 14.9838 52.2233 15.1599 51.8808 15.2774L52.4386 16.9901C52.8497 16.902 53.6914 16.5693 54.4156 15.894C55.3356 15.0327 56.187 13.7017 57.0581 11.8911L59.5244 6.59633H57.4202Z" fill="black"/>
</g>
<defs>
<clipPath id="clip0_1928_5396">
<rect width="59.5048" height="17" fill="white"/>
</clipPath>
</defs>
</svg>
