<svg width="60" height="17" viewBox="0 0 60 17" fill="none" xmlns="http://www.w3.org/2000/svg">
<g id="shopify logo" clip-path="url(#clip0_1029_907)">
<path id="Vector" d="M12.7916 3.21986C12.7818 3.13177 12.7035 3.09263 12.6448 3.08284C12.5861 3.07305 11.4116 3.06326 11.4116 3.06326C11.4116 3.06326 10.4231 2.10414 10.3253 2.00627C10.2274 1.9084 10.0414 1.93776 9.96314 1.95733C9.96314 1.95733 9.77719 2.01606 9.46401 2.11393C9.41507 1.94755 9.33678 1.74202 9.22912 1.53649C8.87679 0.861192 8.36787 0.50886 7.7415 0.50886C7.70235 0.50886 7.65342 0.50886 7.61427 0.518647C7.5947 0.499073 7.57512 0.479499 7.55555 0.450138C7.28151 0.156528 6.93897 0.0195106 6.52791 0.0292976C5.72538 0.0488716 4.93264 0.626304 4.27691 1.66372C3.81692 2.38796 3.47438 3.29815 3.37651 4.00282C2.45653 4.28664 1.81059 4.48238 1.8008 4.49217C1.34082 4.63897 1.32124 4.64876 1.26252 5.08917C1.21359 5.41214 0 14.8174 0 14.8174L10.1882 16.5791L14.6022 15.483C14.6022 15.483 12.8014 3.29815 12.7916 3.21986ZM8.95508 2.27052C8.7202 2.33903 8.45595 2.42711 8.16234 2.51519C8.15255 2.11393 8.10362 1.54628 7.91767 1.05693C8.53424 1.17438 8.82785 1.85946 8.95508 2.27052ZM7.63384 2.68157C7.09556 2.84795 6.51813 3.02412 5.93091 3.21007C6.09729 2.5837 6.41047 1.95733 6.79216 1.54628C6.93897 1.38969 7.13471 1.22331 7.36959 1.12544C7.5947 1.58543 7.63384 2.24116 7.63384 2.68157ZM6.5377 0.567582C6.72365 0.567582 6.88024 0.60673 7.01726 0.694813C6.80195 0.80247 6.58664 0.968849 6.3909 1.18416C5.88197 1.73223 5.49049 2.57392 5.3339 3.39602C4.84455 3.54283 4.37478 3.68963 3.93437 3.82665C4.22797 2.53477 5.30454 0.60673 6.5377 0.567582Z" fill="#95BF47"/>
<path id="Vector_2" d="M12.6448 3.08286C12.586 3.07307 11.4116 3.06329 11.4116 3.06329C11.4116 3.06329 10.4231 2.10416 10.3253 2.00629C10.2861 1.96714 10.2372 1.94757 10.1882 1.94757V16.5791L14.6022 15.483C14.6022 15.483 12.8014 3.30796 12.7916 3.21988C12.772 3.1318 12.7035 3.09265 12.6448 3.08286Z" fill="#5E8E3E"/>
<path id="Vector_3" d="M7.74151 5.35347L7.23258 7.27172C7.23258 7.27172 6.66494 7.00747 5.97985 7.05641C4.98158 7.11513 4.97179 7.7415 4.98158 7.90787C5.0403 8.76913 7.2913 8.95508 7.41854 10.9614C7.51641 12.5469 6.57686 13.6235 5.22625 13.7116C3.60161 13.8094 2.711 12.8601 2.711 12.8601L3.05354 11.4018C3.05354 11.4018 3.95394 12.0771 4.66839 12.038C5.13817 12.0086 5.30455 11.6269 5.28497 11.3529C5.21646 10.2372 3.37651 10.2959 3.25907 8.46573C3.1612 6.91939 4.17905 5.35347 6.42026 5.20666C7.30109 5.12837 7.74151 5.35347 7.74151 5.35347Z" fill="white"/>
<path id="Vector_4" d="M20.582 9.44441C20.0731 9.17037 19.8089 8.93548 19.8089 8.61251C19.8089 8.20146 20.171 7.93721 20.7484 7.93721C21.4139 7.93721 22.0011 8.21125 22.0011 8.21125L22.4709 6.78235C22.4709 6.78235 22.0403 6.44959 20.7778 6.44959C19.0161 6.44959 17.7927 7.45765 17.7927 8.87676C17.7927 9.6793 18.3604 10.2959 19.1238 10.7363C19.7403 11.0886 19.9557 11.3333 19.9557 11.7052C19.9557 12.0869 19.6523 12.3903 19.0748 12.3903C18.2234 12.3903 17.4208 11.9499 17.4208 11.9499L16.9217 13.3788C16.9217 13.3788 17.6655 13.8779 18.9084 13.8779C20.719 13.8779 22.0207 12.9873 22.0207 11.3822C22.0305 10.5112 21.3748 9.89461 20.582 9.44441ZM27.8048 6.43001C26.9142 6.43001 26.2095 6.85086 25.6712 7.4968L25.6419 7.48701L26.4151 3.4352H24.3989L22.4415 13.7409H24.4577L25.133 10.2176C25.3972 8.88655 26.0823 8.06444 26.7282 8.06444C27.1784 8.06444 27.3546 8.36784 27.3546 8.80825C27.3546 9.08229 27.3253 9.42483 27.2665 9.69887L26.5031 13.7311H28.5193L29.312 9.56185C29.4001 9.12144 29.4588 8.59294 29.4588 8.2504C29.4588 7.12489 28.852 6.43001 27.8048 6.43001ZM34.0195 6.43001C31.5924 6.43001 29.9873 8.6223 29.9873 11.069C29.9873 12.635 30.9562 13.8877 32.7668 13.8877C35.145 13.8877 36.7599 11.7541 36.7599 9.24867C36.7501 7.80998 35.8986 6.43001 34.0195 6.43001ZM33.0213 12.3414C32.3362 12.3414 32.0426 11.7541 32.0426 11.0299C32.0426 9.87503 32.6396 7.98615 33.7357 7.98615C34.4502 7.98615 34.6851 8.60273 34.6851 9.19973C34.6851 10.4427 34.0881 12.3414 33.0213 12.3414ZM41.9078 6.43001C40.5475 6.43001 39.7743 7.62403 39.7743 7.62403H39.7449L39.8624 6.53767H38.0811C37.9931 7.2717 37.8365 8.37763 37.6701 9.20952L36.2705 16.5889H38.2867L38.8445 13.6039H38.8837C38.8837 13.6039 39.2947 13.8681 40.0679 13.8681C42.4363 13.8681 43.9827 11.441 43.9827 8.98442C43.9925 7.6436 43.3857 6.43001 41.9078 6.43001ZM39.9798 12.3707C39.4513 12.3707 39.1479 12.0771 39.1479 12.0771L39.4807 10.1882C39.7156 8.93548 40.3713 8.0938 41.076 8.0938C41.6925 8.0938 41.8785 8.66145 41.8785 9.20952C41.8785 10.5112 41.1053 12.3707 39.9798 12.3707ZM46.8698 3.54285C46.2239 3.54285 45.715 4.05178 45.715 4.71729C45.715 5.3143 46.0967 5.72535 46.6643 5.72535H46.6937C47.32 5.72535 47.8681 5.30451 47.8779 4.55091C47.8779 3.96369 47.4864 3.54285 46.8698 3.54285ZM44.0512 13.7409H46.0673L47.4375 6.59639H45.4018L44.0512 13.7409ZM52.5659 6.57682H51.1663L51.2348 6.24406C51.3523 5.55897 51.7633 4.94239 52.4288 4.94239C52.791 4.94239 53.0748 5.04026 53.0748 5.04026L53.4663 3.46456C53.4663 3.46456 53.1139 3.28839 52.3701 3.28839C51.6557 3.28839 50.9412 3.49392 50.3932 3.96369C49.7081 4.55091 49.3851 5.39259 49.2187 6.24406L49.16 6.57682H48.2204L47.9268 8.0938H48.8664L47.7996 13.7409H49.8157L50.8825 8.0938H52.2723L52.5659 6.57682ZM57.4202 6.59639C57.4202 6.59639 56.1577 9.77716 55.59 11.5095H55.5607C55.5215 10.9516 55.0615 6.59639 55.0615 6.59639H52.9476L54.1611 13.1635C54.1905 13.3103 54.1709 13.3984 54.122 13.4962C53.8871 13.9464 53.4956 14.3868 53.0259 14.7098C52.6442 14.9838 52.2233 15.16 51.8808 15.2775L52.4386 16.9902C52.8497 16.9021 53.6914 16.5693 54.4156 15.894C55.3356 15.0328 56.187 13.7017 57.0581 11.8912L59.5244 6.59639H57.4202Z" fill="white"/>
</g>
<defs>
<clipPath id="clip0_1029_907">
<rect width="59.5048" height="17" fill="white"/>
</clipPath>
</defs>
</svg>
